/* XPM */
static char *_f1a341b8c02428fcca415a216cf3460ClG5sacMxxS4kTFt[] = {
/* columns rows colors chars-per-pixel */
"40 40 199 2 ",
"   c #750100",
".  c #7C0101",
"X  c #830203",
"o  c #8C0101",
"O  c #840A06",
"+  c #8D0906",
"@  c #8D0609",
"#  c #840B0B",
"$  c #8B0D0B",
"%  c #940202",
"&  c #9A0203",
"*  c #950907",
"=  c #950609",
"-  c #9B0609",
";  c #930C0B",
":  c #9B0C0C",
">  c #8B110C",
",  c #9A120F",
"<  c #8B0D10",
"1  c #891B15",
"2  c #881B16",
"3  c #941412",
"4  c #9B1312",
"5  c #921B15",
"6  c #9E1A16",
"7  c #941F1A",
"8  c #A40102",
"9  c #AB0203",
"0  c #A20905",
"q  c #A60609",
"w  c #AA0609",
"e  c #AC0B0D",
"r  c #B40202",
"t  c #BB0103",
"y  c #B50A06",
"u  c #B0070A",
"i  c #BC050B",
"p  c #B3090B",
"a  c #A3130D",
"s  c #AB130E",
"d  c #B11A0F",
"f  c #A10E12",
"g  c #BE0C11",
"h  c #A01010",
"j  c #AD1513",
"k  c #A41A16",
"l  c #A41D1A",
"z  c #AA1B1D",
"x  c #AD1917",
"c  c #B71513",
"v  c #BC1A15",
"b  c #B11B19",
"n  c #BC1B1A",
"m  c #B21A15",
"M  c #89201C",
"N  c #95241D",
"B  c #9C221C",
"V  c #96281F",
"C  c #A4231D",
"Z  c #AB221E",
"A  c #BE231E",
"S  c #B51F20",
"D  c #8C2A24",
"F  c #9D2721",
"G  c #942D26",
"H  c #9C2B22",
"J  c #922522",
"K  c #8A3329",
"L  c #973126",
"P  c #9B3224",
"I  c #94332B",
"U  c #9B352D",
"Y  c #9D392D",
"T  c #943C2E",
"R  c #933C32",
"E  c #9C3A33",
"W  c #AA2422",
"Q  c #A32B24",
"!  c #AB2B23",
"~  c #A72321",
"^  c #B12120",
"/  c #B82B24",
"(  c #A4342A",
")  c #AC322B",
"_  c #A4392D",
"`  c #A6362B",
"'  c #A83731",
"]  c #A13A31",
"[  c #AC3C31",
"{  c #C01617",
"}  c #C21C19",
"|  c #C2221E",
" . c #C52423",
".. c #C42C25",
"X. c #C82422",
"o. c #9C4335",
"O. c #9B4539",
"+. c #9E4D3D",
"@. c #9E513F",
"#. c #A14335",
"$. c #A44C3E",
"%. c #AB4C3D",
"&. c #AA4539",
"*. c #BD4235",
"=. c #B1443A",
"-. c #B44B3E",
";. c #A1503F",
":. c #AC503F",
">. c #9E4F40",
",. c #9E5C46",
"<. c #A74D42",
"1. c #AD4D41",
"2. c #B24C41",
"3. c #BA4B42",
"4. c #A55242",
"5. c #AA5344",
"6. c #A65748",
"7. c #AC5A4A",
"8. c #A95B47",
"9. c #B45345",
"0. c #BA5346",
"q. c #B55946",
"w. c #BA5946",
"e. c #B55549",
"r. c #BC5549",
"t. c #B45C4B",
"y. c #BA5C4A",
"u. c #BC5F50",
"i. c #B55F52",
"p. c #A7604E",
"a. c #AD604D",
"s. c #B4624E",
"d. c #BA614D",
"f. c #AD6A54",
"g. c #B56554",
"h. c #BA6553",
"j. c #B56B56",
"k. c #BC6A56",
"l. c #B56E59",
"z. c #BD6B58",
"x. c #BA6E59",
"c. c #BB6D5B",
"v. c #A87057",
"b. c #AF755D",
"n. c #B4725C",
"m. c #BD755E",
"M. c #BB725C",
"N. c #B37157",
"B. c #BB7562",
"V. c #B47B63",
"C. c #BD7B64",
"Z. c #B67965",
"A. c #C45248",
"S. c #D25346",
"D. c #C36E5B",
"F. c #C36756",
"G. c #C2745E",
"H. c #C37562",
"J. c #C37A64",
"K. c #C67D6D",
"L. c #CC7D6A",
"P. c #C97A63",
"I. c #BB8067",
"U. c #BE846B",
"Y. c #BE8870",
"T. c #BF9076",
"R. c #C38065",
"E. c #C4836C",
"W. c #CA836C",
"Q. c #C68671",
"!. c #CD8471",
"~. c #C58E73",
"^. c #CC8D74",
"/. c #D68F79",
"(. c #D28A73",
"). c #CE9578",
"_. c #C79B7D",
"`. c #C59378",
"'. c #D3947E",
"]. c #D19175",
"[. c #CD9E82",
"{. c #D29E84",
"}. c #D89F84",
"|. c #CEA184",
" X c #D3A284",
".X c #DCAC8E",
"XX c #D4AB8C",
"oX c #DAB494",
"OX c #DCBA97",
"+X c #DDB699",
"@X c #DEBC9B",
"#X c #D6B596",
"$X c #E2B08F",
"%X c #E1AE91",
"&X c #E2B599",
"*X c #E0BF9C",
"=X c #E0B593",
"-X c #D7C097",
";X c #DEC19F",
/* pixels */
"#X(.$.8.5.1.<.$.$.5.5.6.8.<.;.j.*Xc.4.5.$.<.1.$.$.4.6.e.8.6.1.U.&X6.6.4.<.<.$.$.",
"B.H o % o % o o o % % o X % o + C.% % o % & X & % % o o o o o ( s.o % % o o % % ",
"w.4 % * % % % - * o % & & & % ; q.& * % & & * % % % % & % & o Q =.o % % & * % % ",
"r.l % % % % % % % & o % % & % * q.% % + * % o % % - & % % = o Q =.% % & % % * o ",
"t.6 % % & - % & % & & % % & & - t.& & % % & & % % % % & & - % H 1.o - - % o % f ",
"m.Q o % o o % % % o o o o & o ; C.o o % & % X % o o o % o % o _ e.o % o % % % % ",
"@XW.9.t.y.u.h.z.M.G.z.j.h.z.B.^.#XD.q.t.g.h.j.x.M.D.F.h.F.m.M. XXXt.t.i.a.c.c.c.",
"N Q _ T E ' L o.=Xg.) ) ` _ Q ! B ) [ [ P ) ! g.+X+.I E I K I J D U R O.E E >.Z.",
"% % o o % % % o d.9 & 8 8 8 8 8 9 8 8 9 9 & & j 7.. . . . . . . . X X X .     E ",
"% % % = % & % % t.q 9 9 8 8 8 8 8 0 8 9 9 8 9 x >.. # . X X X X . . # # < 5 . E ",
"& % % % o % 0 % s.p 9 8 8 9 9 8 q 8 9 8 8 q 8 b t.. X O o X X . # X . < # # # G ",
"% % & & % o % o 8.e 8 & 9 9 & 8 8 9 & 8 8 8 9 j 6.  X . . . . X . . . .   # . D ",
"% % : * % - % 6 ).Z 8 0 9 9 q 9 9 9 w q w p q [ Q.. X . X X # X X $ . X # 1 # t.",
"{.'.C.R.C.W.E.~. XL.D.x.G.G.m.^. X(.P.H.J.E.R._.[.J.N.n.B.B.B.`.|.W.U.C.C.I.U._.",
"_.A.q p w w e w 9 e s : j j w Z  XH $ > ; > + = = + 3 3 $ 3 O 4.'.1 5 $ ; $ + * ",
"w.c t r r t r t t r { t t t r y q.% % % & & & o % % % % * o % Q 1.% - & - & % & ",
"q.{ r r t r t r t r r t r y r y q.% & % % % % & & % % - : @ - ] %.= : % % % % % ",
"t.X.r r r i t r i r y t t r t y d.% % % % % % & % % % % , k % ( 0.o % * & - o % ",
"7.c 9 r r r t 9 9 r 9 r r t t 9 t.o % % % o % o % X X o % & % Q <.o % % o o % & ",
"$XS.v } } A  .| | |  ...A ../ S..X( 4 x ~ 6 ~ ~ B Z Z ) Q ' ] Q./.7 k l C C Z N ",
"B.c.l.N.M.j.x.C.OX'.N.n.n.V.B.b.B.c.b.f.n.l.l.`.@XE.B.c.C.Z.B.B.n.l.j.N.N.j.x. X",
"X @ o o % o o o K.1   . .   . .   .     . .   2 !.X o @ @ @ o o @ o % % % o X #.",
"% % & & % % * & 7.X X X O X X . . @ X X X # . 2 e.= > , % f o = % % & % & % - ) ",
"% & % % % % % % 7.# . . X X X . X X . X X . . 2 7.= : - f - o % & % % % % & o P ",
"* & % % * % & o a.# X . O O X X # @ . . # . . 2 y.% f ; % % * % % % % & % - o Q ",
"o % o o o % % o h.O . X   .   .   .   . . . . 2 z.X & % o o % o o o o % o % o ( ",
"2.3.0.0.5.d.t.D.*Xf.o.o.o.$.5.5.<.9.5.$.6.g.p.Y.+Xt.2.%.-.-.3.0.2.A.0.-.w.h.t. X",
"-X(.%.:.%.:.-.&.[ -.:.5.q.3.$.g.@Xl.<.<.5.7.<.5.$.<.$.%.5.<.&.U.+X,.>.<.+.>.$.O.",
"s.z 8 8 8 & 8 8 9 8 & & & 8 8 8 m.+ & % o + o = % % o o o o o L 7.  . . .   X . ",
"w.b 8 0 8 9 9 8 & 0 8 9 9 8 8 a 5.% & o - - f % = * % & * & & Q O.. . # . X X # ",
"t.b 8 8 8 8 8 8 9 8 9 9 8 8 9 u y.% & % % % , % % % % & & % o Q &.. . X o X . . ",
"8.A 9 9 9 8 w 8 9 q 8 8 8 8 8 - t.% & % % o : % & & o % % * % Q $.. # . X . . X ",
"R.Z 8 9 8 8 9 8 8 & 9 8 8 9 8 s P.o % % % % o o % % o & o o % =.g.  . . . . X . ",
"oX!.F.h.D.D.D.G.!.L.G.G.G.H.E.^.#XJ.i.g.c.j.c.K.W.G.m.x.H.P.C._.XXj.a.M.N.j.B.I.",
"1 N B P V N N G XXw.Z Z Z Z Z l e k ! / ! ^ Z :..XY V V 7 V N 4 5 N L H B B N x.",
"& % o % % % % % A.y r y t t r t { r r t 9 r r d r.% % * & o o % & & % % % % o P ",
"% % % % & & % & w.i r y r t r r t r y t r r t { 9.o & & % & & & % & % % % % % ( ",
"& % % % % % % o t.g r t r r r r t r r r r t r d q.o % & % % % % % % % % % - % P ",
"% % % % % % % o y.{ r r t t t t r t t t t r { g w.o % o % & % % % & % & % % & H ",
"% & % % & & * 4 ].v 9 t r r r r r i r r r i t [ W.% & % & % % & & o % % % - o y."
};
