/* XPM */
static char *_67e619b18f64f61a9d2926bd75b3397zfMWjIRmxRk0tIXm[] = {
/* columns rows colors chars-per-pixel */
"40 40 249 2 ",
"   c #782309",
".  c #941E04",
"X  c #8C2907",
"o  c #9B2B0B",
"O  c #982807",
"+  c #97350B",
"@  c #9B2D11",
"#  c #893912",
"$  c #943415",
"%  c #9C3314",
"&  c #9E3C1B",
"*  c #953A14",
"=  c #A32500",
"-  c #AC2C02",
";  c #A62907",
":  c #BB2A03",
">  c #B72602",
",  c #AA3509",
"<  c #B43B0C",
"1  c #B9360D",
"2  c #AD3A11",
"3  c #A4361A",
"4  c #A73716",
"5  c #BB3B14",
"6  c #B93B18",
"7  c #A32716",
"8  c #983B20",
"9  c #A23B21",
"0  c #B53C23",
"q  c #C83B09",
"w  c #D53B0B",
"e  c #CC3D15",
"r  c #C63B16",
"t  c #D33E13",
"y  c #D83E1A",
"u  c #ED3C03",
"i  c #ED3D0A",
"p  c #E53D08",
"a  c #F23C04",
"s  c #F53E09",
"d  c #FC3A03",
"f  c #E23C17",
"g  c #8F4217",
"h  c #9C431A",
"j  c #9A4616",
"k  c #A74607",
"l  c #BC470A",
"z  c #A2441E",
"x  c #AB441C",
"c  c #A34B1C",
"v  c #A74817",
"b  c #B74815",
"n  c #AE5217",
"m  c #B3521B",
"M  c #BA5617",
"N  c #BB500C",
"B  c #994826",
"V  c #9A552C",
"C  c #93482B",
"Z  c #A24C25",
"A  c #AE4D24",
"S  c #AC4C2A",
"D  c #A74627",
"F  c #B24B24",
"G  c #B34D2B",
"H  c #B64726",
"J  c #AB5123",
"K  c #AE5925",
"L  c #AC532B",
"P  c #A55428",
"I  c #B25326",
"U  c #B2552D",
"Y  c #BC552D",
"T  c #B45A2C",
"R  c #BC5B2E",
"E  c #BA5A24",
"W  c #BA4C32",
"Q  c #AC5232",
"!  c #AC5C34",
"~  c #A75835",
"^  c #BC5B33",
"/  c #B95835",
"(  c #A64F31",
")  c #B8642C",
"_  c #B86738",
"`  c #C9440D",
"'  c #D5480E",
"]  c #C8530D",
"[  c #C64313",
"{  c #CD4314",
"}  c #CA4A13",
"|  c #C3421C",
" . c #CD4D1B",
".. c #C74717",
"X. c #D34414",
"o. c #DB4314",
"O. c #DA4A15",
"+. c #D3431A",
"@. c #DB441B",
"#. c #D54A1B",
"$. c #DB4B1C",
"%. c #D54E15",
"&. c #C25314",
"*. c #C95B15",
"=. c #C65719",
"-. c #DB5A16",
";. c #D65718",
":. c #E34104",
">. c #EA4306",
",. c #EB420B",
"<. c #E9490C",
"1. c #F3420A",
"2. c #F44408",
"3. c #E24615",
"4. c #E54C16",
"5. c #EC4B15",
"6. c #EC471A",
"7. c #E44D1B",
"8. c #EB4C1C",
"9. c #EA4611",
"0. c #F24C14",
"q. c #F94C13",
"w. c #F34D1B",
"e. c #FD4E1C",
"r. c #F84413",
"t. c #E4521C",
"y. c #EC511B",
"u. c #E75816",
"i. c #F35316",
"p. c #FD5416",
"a. c #F3521B",
"s. c #FC531C",
"d. c #FA581D",
"f. c #E05409",
"g. c #DC631C",
"h. c #D86619",
"j. c #DF620E",
"k. c #EC650B",
"l. c #E3620F",
"z. c #E46214",
"x. c #EC6415",
"c. c #EC6B14",
"v. c #E4641B",
"b. c #ED651A",
"n. c #E66A1A",
"m. c #EC6B1B",
"M. c #E46914",
"N. c #F36415",
"B. c #F46B13",
"V. c #F4651B",
"C. c #F26B1B",
"Z. c #FD6A1A",
"A. c #E9711B",
"S. c #F36914",
"D. c #D34520",
"F. c #D84C27",
"G. c #C25C2E",
"H. c #CA5B26",
"J. c #D15D22",
"K. c #D95427",
"L. c #CA4D36",
"P. c #C35D33",
"I. c #C75A38",
"U. c #D55B35",
"Y. c #E34B21",
"T. c #EB4C24",
"R. c #E14721",
"E. c #F44D23",
"W. c #FB4E22",
"Q. c #EB5222",
"!. c #E95823",
"~. c #F35322",
"^. c #FC5323",
"/. c #F45A23",
"(. c #FB5A24",
"). c #FD542A",
"_. c #F45C2C",
"`. c #FD5C2B",
"'. c #F4532A",
"]. c #EC5E38",
"[. c #F95D36",
"{. c #CB6427",
"}. c #D36623",
"|. c #D86727",
" X c #CD623A",
".X c #C96C3E",
"XX c #C66737",
"oX c #D5643B",
"OX c #DC643C",
"+X c #D96836",
"@X c #C9723D",
"#X c #D87837",
"$X c #DE712C",
"%X c #E56A22",
"&X c #ED6B23",
"*X c #E36B2B",
"=X c #E96927",
"-X c #F36B22",
";X c #FA6B22",
":X c #F56929",
">X c #ED7424",
",X c #EE732D",
"<X c #EA752A",
"1X c #F47325",
"2X c #FD7425",
"3X c #F4742B",
"4X c #FC752A",
"5X c #F57B2C",
"6X c #FC7B2B",
"7X c #FB7927",
"8X c #EC6233",
"9X c #E5633D",
"0X c #EC653B",
"qX c #E46A3C",
"wX c #EA6937",
"eX c #F56334",
"rX c #FC6334",
"tX c #FE643A",
"yX c #F36A3D",
"uX c #F9673B",
"iX c #EB7432",
"pX c #E2743C",
"aX c #EA7838",
"sX c #F47A33",
"dX c #FD7C32",
"fX c #F47D3A",
"gX c #F97536",
"hX c #BD6D44",
"jX c #C35E43",
"kX c #C76442",
"lX c #D66843",
"zX c #CB7748",
"xX c #DE7741",
"cX c #E36641",
"vX c #EA6843",
"bX c #F56B41",
"nX c #FE6B44",
"mX c #EC7A43",
"MX c #E67D4A",
"NX c #FB7744",
"BX c #FF822E",
"VX c #FE8335",
"CX c #FF843A",
"ZX c #FE893C",
"AX c #F58338",
"SX c #D98148",
"DX c #E9864A",
"FX c #F78847",
"GX c #F38E54",
/* pixels */
"#XmXaXfXaXaXgX_ jXcXcXvXvX9XcXU.yX|.F.cXkXSXDXDXSXDXGXFXGXDXDXpXGX) SXxX#XxX#XMX",
"m.-XN.S.N.m.2X}.7._.a.w.w.w.a.w.0.5.E.Q.K.sXfX6XdXdX6X6X2XVXdXdXdX5X,Xb.;X-X-Xb.",
"M.&Xb.c.m.n.Z.*.X.t.4.5.8.4.~.a.w.i.E.8. .3X4X1X>X>X7X-X7X>X5X3XdXg.-.-X;Xx.x.;X",
"N.-XV.C.-Xb.V.&.X.7.y.8.y.8.a.w.8.y.T.y.q 5X4XBX1X4X7X6X7X4X3X7XAX*.h.%Xz.n.n.b.",
"&.n M k b n &.v , r b 5 6 6 r r 5 < 6 r + J.J.}.}.{.}.{.J.J.J.H.{.k m m b N &.M ",
"G.V L c L P I ( G G W D D S L ) G.E I.G.) XX X) ) ) ) J XXG P.^ Y  XI.G  XU.lXG.",
"[.U.tX_.[.[.:X[.eXrXrX_.8X8XwXNX=X<XsX3XfXsXgX5X4XgX3X8XtXtX`.rX:XtX[.rXgX`.rX:X",
"5.< T.3.W.w.<.e.5.<.0.5.y.4.-.n.x.m.v.k.b.B.V.x.x.x.v.' d.w.s.0.0.r.s.~.p.s.e.y.",
"w.` !.w.w.i.i.0.E.y.8.W.E.%.%.&XB.v.A.k.<Xc.c.&Xm.m.;.O./.).w.d.i.p.e.(.(.^.s.a.",
"T., +.7.$.@.7.Q.+.{ +.3.@.[ ] -.u.;.|.f.|.u.u.;.;.g.} l o.@.o.%.4.4.6.o.T.w.!.O.",
"9 # $ % & 3 9 $ j * * & & * * n v v h v g P g B A I A A 0 0 0 H H D D $ & 3 3 % ",
"U.kXI.lX XoXlX/ Q.F.$.Y.T.T.8.6.o.$.{ Q.L.bX].bX9XqXvXyXuX0X0X9XcX XOXP.XXU.lXoX",
"+.@.o.R.$.t @.K.1.i u a u a a a 2.u ,.u y 7.Q.T.~.8.y.y.a.a.~.w.).#.@.D.X.t e y ",
"' +.t t X.t y 6 u s 2.u u s s >.u u >.u e 6.~.w.8.5.4.5.8.y.T.8.8.1 q +.y @.{ y ",
"[ { [ 1 } ..e X w p >.p :.i i <.p ,.p >.6 F.7.9.t.7.3.7.$.$.7.4.F., 5 r [ r b q ",
"X . o O O X 7   O - - = - : > = O O ; = X % 2 2 x 6 4 4 % o 4 4 4   $ @ @ O X O ",
"G ~ hXXXhX_ zXzXzX.XzX_ @XzX~ _ I XX) _ ^ kX.X#X$X+X_ V L.W / I.^ Y Y L.I.z Z P.",
"(.*XZX6XCXVXVXVXVXBXVXAX6XVXfX7X4X4X7X<X1X-XC.Z.V.;X=X{.[._._.(.~.~.W.W.`.a._.`.",
"7.;.6XC.,X1X7X-X>X2X>X,X1X5X|.j.n.u.M.j.C.b.c.x.c.m.n.N E.4.4.<.t.y.i.4.y.y.y.4.",
"#. .dX7XsX>X4XdX6X2X4XgX6XdX` &X&X-XC.x.;X-X-XV.c.1Xu.l w.8.w.w.4.0.a.5.a.s.w.4.",
"< b |.n.$X|.%X|.}.g.h.{.|.}.k =.N &.] ] &.=.&.&.&.=.M , r | | | | e F.r r e r 1 ",
"G L XXE ) ) G.L U E L _ E I Q I ^ ) Y P.Z P z h G L S h S D D 8 9 h G Z Z E Y ! ",
"fXFXAX<XpXgXfX+XeXtXuXnXrXtXnXtXtXtXtXnXU.0X].].[.eXtX8XrXeXtX].0XwXFXiX3XsXfXsX",
"k.N.k.B.n.u.N.h.a.q.p.5.p.p.6.p.p.i.q.s.q O.w.a.w.4.0.8.5.4.w.5.y.' v.V.V.z.l.V.",
"V.A.Z.b.:X-X%X] y.).p./.p.e.^.d.).~.s.).e F.E.w.8.a.5.i.~.E.w.E.W.` b.V.m.-XC.V.",
"h.h.z.j.v.g.h.l X.7.3.$.7.6.y.6.i.i.p.e.` %.8.f.t.4.4.8.3.3.8.O.@.l |.b.g.g.v.g.",
"x j x j h x F z x 6 b 4 H 0 0 4 4 % 4 4 X $ % 4 7 0 9 3 % @ * h 3 * c n c j v j ",
"F.G.9XoXOXvXvX9X+XqXOX X9XOX XXXjX XjXlXjXjXI.lX/ lX/ W U.F.+.F.D. .$.7.#.{ F. .",
":.%.(.!././.~.y.W.).e.E.^.~.D.Y. .#.+.$.F.$.$.Y.;.F.;.%.1.d d d 2.1.s d a u r.w ",
"f { E.7.5.6.6.8.8.E.4.Q.T.#.6 ..{ t q e t o.` t t f e ` s u :.1.u :.u u >.u s q ",
"w r E.T.T.~.8.Y.4.t.Y.7.8.} - [ { X.[ [ { { [ e [ D.= - r.q.:.i a 1.s a <.>.i q ",
"= X 1 < 5 6 1 2 4 , 4 2 r o X 3 o ; @ + ; O o ; O 7 X X > : - : : : : = - : > O ",
"P ( ! H.lX@XXXC C ( B U ! D ( ( W S 8 B 8 ! ! V ~ ! _ _ _ _ ! ~ .Xg ! ! Z P / V ",
"7XsX6XZ.Z.C.1X,X_.[.`.`.`.).^.).`.a.!.=X8XCXFXZXFXZXZXVXZXZXVXZXZXAXsXsXAX5XdXsX",
"M.%XA.c.m.h.m.*.} t.t.9.4.4.i.9.a.9.E.~.D.3X3X-X1X>X6X2X4X2X2X4X1X%X-.b.m.x.u.n.",
"Z.-Xx.N.-X-X;X%.e t.y.8.y.a.~.a.Q.w.E.!.[ sX3X7X>X>XBX1X5X7X>X3XVX;.v.-Xb.Z.N.1X",
"-.;.-.-.}.;.;.b r #.@.o.+.+.@.@.} ' D.X., |.$X>X,X=X<X|.=X=X*X*X#Xk M *.*.*.%.*.",
"n B h # g j c Z & z 4 3 & % & D x x W x Z ) T E E K K J I G J I Y n A H G.M G.J ",
"wXI.9X].qXyXwX9X9X0X8X9XqXOXpXmX*X*XaXaXFXDXmXaXiXiXmXwXyXbXuXyXuXbXuXeXnXuXnXbX",
"a.{ E.w.8.e.<.a.8.a.0.8.y.t.u.:XC.C.z.k.V.S.V.B.b.n.%Xu.s.e.e.p.p.i.`.p.a.d.q.i."
};
