/* XPM */
static char *_ae1a65f87b3463cd580ab7f68d3097byyxUswm79YDLWy71[] = {
/* columns rows colors chars-per-pixel */
"40 40 46 1 ",
"  c #0D0D0F",
". c #141416",
"X c #1B1B1D",
"o c #1F1F21",
"O c #1F2022",
"+ c #232325",
"@ c #262729",
"# c #28272C",
"$ c #27282A",
"% c #2A2A2C",
"& c #2E2E30",
"* c #333334",
"= c #363739",
"- c #37383A",
"; c #3B3B3D",
": c #3E3F41",
"> c #3F4042",
", c #434344",
"< c #464648",
"1 c #49474C",
"2 c #4A4A4C",
"3 c #4E4E50",
"4 c #4F5052",
"5 c #525254",
"6 c #565759",
"7 c #59575C",
"8 c #57585A",
"9 c #5A5A5C",
"0 c #5E5E61",
"q c #605F64",
"w c #626264",
"e c #666668",
"r c #686669",
"t c #67686A",
"y c #6B6B6D",
"u c #6E6F71",
"i c #6F7072",
"p c #727375",
"a c #767678",
"s c #77787A",
"d c #7A7B7D",
"f c #7D7E80",
"g c #7F8082",
"h c #828385",
"j c #868789",
"k c #898A8C",
/* pixels */
"aug2;412235%9e00eew<;822<23333253,5,*922",
"pif;*31122-X6r8e90e2-5<2222232<22,5,&532",
"auf-*<<>;2-o<y0r00r2*2<<,<<<,<<,;,<;;522",
"dif,-,>>,<<%-009r9r2*<,:,,;,;;,-<,,=%552",
"pid3;1,,<*;&<0www9y<*<,,;=-,;=,<,;,;+35<",
"ass>@*$o++%X299ee0y:O$Oo+%*o.o+O@*%X%623",
"iia>=<<;*<2$409009y:=<:;,39:2iuyyd9X*9,5",
"itp22696868-<99800e;<096923<whdfpfh*&552",
"yiy@21<9<,4&496695w=,5,52<3<9fypppdw*3<3",
"yye@-1,2>;,$2999956&-622325;6dadppdw*2,<",
"iiu>-2,>,,2$<996999::62,222:<fuippfw*2,,",
"twt4>2;1,,,&3ww0965:;252226,@ussppfr*3,,",
">;>%%O.O$$$X&;:=*=;%@*@+ %;X3arpppsw*2,,",
"-=>O>2;>:;:&;,:-:;-+&565624*2suruyp9&2:,",
"989-<84465959999659-5pyyyyp92aypyyp6%<,,",
"2>4*=33422312<222<6-3e9w99e44pyuuyu6%<:,",
"1<3&+6,2,<,,<,<,<,2=2re0w9e35uuuypp6%,2,",
":,<@+*3;,,,<:;::,:,*3w0w00r38iuuiyy5&,:,",
",::o:<<:,,,,;;;,;22&2w0wewe39aipd6r9%,<:",
"&&&.@&+%%@&@OO+&%&&O;eww00r3,053;o;*X%+%",
"233<%+<,,,1&&*==;OO#,00090w2o:-:&X,,,,,:",
"uypir0pyyrp129669<<::7669662&ruay5pyyypy",
"9505yp0000r:=523379:=999696<,y09yyy6r09e",
"609900w0wwq,&5,2,55=*096699;<w9w6ew00w00",
"96965699999:+,,,<:,&,906999:,96699696969",
"96525566690<*<,,::<*,759666,<00096990965",
";,;&*,:,;:2*&*&&*&=o;<;::,<*=<::522232;%",
"&:*oX=***=:@@&&%&*:+o++&%%*+@*@%X@;+X%@o",
"<33:109067w<<5332562&<<5335,299020w2%222",
"3,3;23<2225;=<,,<=,&*252::,*;323632,*622",
"2,2=,532235;&<,:,:3+=:2<,,2=:5222222*2<2",
"=<<&o522223;@<<,:2,+*2:,,,,*;532225;%,,:",
";=<=.<33126;*,,:;><%&,,,,;<*=533222;%:,,",
"*;;+=<<,225=+=*&&%*@&*%&o&=@;5,225<*%;;%",
"@*&.;:,,<,2=@:=*-,;.+,<*===o*4,,,;,=+X%*",
"793;=<,,::<:9hhhhhjpfkjfhgk9*,,,:,,%*%*g",
"356<&2,,,,:@0appaypshpyppid9*2,;;,<%3w,w",
"<26;*2::<<<+rppaaaapappayaf6&,:22;<%;ppy",
"<<<&=,,,::<%0iiprruupyyiiiy,+,,,:<<*;09w",
",:;*&:<,<:2*9iuq9ryruipyt0y6+,2;=,:*;955"
};
