/* XPM */
static char *_a51bc607b574d3be2541a842672d4caPzLDJPz1uniKH6qb[] = {
/* columns rows colors chars-per-pixel */
"40 40 151 2 ",
"   c #252422",
".  c #282425",
"X  c #2A2827",
"o  c #292728",
"O  c #2D2C2C",
"+  c #302E2E",
"@  c #32312F",
"#  c #322F30",
"$  c #353434",
"%  c #383636",
"&  c #363837",
"*  c #3A3936",
"=  c #373739",
"-  c #393738",
";  c #363A39",
":  c #3C3B3B",
">  c #413937",
",  c #413E3E",
"<  c #44413E",
"1  c #413F40",
"2  c #444343",
"3  c #494645",
"4  c #4A4846",
"5  c #4A4748",
"6  c #4D4B4B",
"7  c #504846",
"8  c #514D4D",
"9  c #52514F",
"0  c #534F50",
"q  c #545353",
"w  c #595556",
"e  c #5A5856",
"r  c #5A5758",
"t  c #5D5B5B",
"y  c #615D5D",
"u  c #5E605F",
"i  c #63615E",
"p  c #69615F",
"a  c #625F60",
"s  c #646363",
"d  c #686665",
"f  c #6A6967",
"g  c #696768",
"h  c #6C6B6B",
"j  c #726D6D",
"k  c #74716F",
"l  c #716F70",
"z  c #747373",
"x  c #7A7676",
"c  c #7C7976",
"v  c #7A7778",
"b  c #7D7B7B",
"n  c #827D7C",
"m  c #82807E",
"M  c #827F80",
"N  c #7F8180",
"B  c #848484",
"V  c #898685",
"C  c #868A86",
"Z  c #8B8987",
"A  c #898788",
"S  c #878988",
"D  c #8C8B8B",
"F  c #918987",
"G  c #928D8C",
"H  c #93908E",
"J  c #8F8F91",
"K  c #918F90",
"L  c #949393",
"P  c #9A9694",
"I  c #9C9996",
"U  c #999798",
"Y  c #9E9C9D",
"T  c gray62",
"R  c #9F9F9F",
"E  c #9C9B9B",
"W  c #A09B97",
"Q  c #A39B99",
"!  c #A29E9F",
"~  c #A29E9B",
"^  c #A7A29F",
"/  c #A4A19E",
"(  c #A9A19F",
")  c #9FA1A1",
"_  c #A1A1A1",
"`  c #A6A7A2",
"'  c #A4A4A4",
"]  c #A4A6A5",
"[  c #A5A5A7",
"{  c #A7A5A6",
"}  c gray65",
"|  c #A4A3A3",
" . c #AEA6A4",
".. c #AAA7A7",
"X. c #ABA9A7",
"o. c #A5A6A8",
"O. c #A7A9A8",
"+. c #A9A9A9",
"@. c #ACAAAB",
"#. c #A9AAAC",
"$. c #ABABAA",
"%. c #B1ADAD",
"&. c #AEB0AF",
"*. c #AEB0AF",
"=. c #B6B2AF",
"-. c #B2B0AF",
";. c #B0AEB1",
":. c #B1B3B2",
">. c #B2B2B2",
",. c #B6B5B3",
"<. c #B6B7B2",
"1. c gray71",
"2. c #B5B7B4",
"3. c #B4B4B4",
"4. c #BAB6B3",
"5. c #B8B4B2",
"6. c #BBB9B7",
"7. c #B7B7B9",
"8. c #B9B7B8",
"9. c #B9B9B9",
"0. c #B8B8BA",
"q. c #BCBEBB",
"w. c #BFBEBC",
"e. c gray75",
"r. c #BCBCBC",
"t. c #C1BDBA",
"y. c #C0BFBA",
"u. c #C0BDBD",
"i. c #C2C1BF",
"p. c #C6C2BF",
"a. c #C4C0BF",
"s. c #BEBFC1",
"d. c #C1BFC0",
"f. c gray76",
"g. c #C4C6C5",
"h. c gray77",
"j. c #C4C3C3",
"k. c #C6C8C7",
"l. c #CDCBC7",
"z. c #C9C7C8",
"x. c #C7C9C8",
"c. c #C8C8C8",
"v. c gray80",
"b. c #CCCBCB",
"n. c #D0CECD",
"m. c #D1D0CE",
"M. c LightGray",
"N. c #D4D3D3",
"B. c #DBD7D6",
"V. c #DCD8D5",
"C. c #E2E0E1",
/* pixels */
": 2 O # : 6 6 q 2 : 2 # + 1 - + = = # = * > : @ & = : 9 q e 9 9 2 & O O 9 6 q 6 ",
"2 & g b v h 6 O = O - q z b a 8 2 : = + @ * < * & : : $ O O & , 6 6 e 1 O + $ 4 ",
"= w [ ! U Y A : = q R v.d.h.h.D & 1 h J <.i.<.^ t : : * s U y.x.x.:.#.L 1 5 J #.",
": s D x l l h : = R >._ [ Y R +.: h w.f.i.=.4.i.I : : m 9.x.9.#.@.[ [ #.6 6 U B ",
"= q a y d a q = a Y L A L D J S < d ( Q (  .( H H , 8 H E U U o.Y U L b 5 w v z ",
"$ 5 g a t d 5 O a A B A J S D z $ 8 n Z G G F F n > 2 z b S S B A M b l 6 : s s ",
"$ $ q q 0 8 : = 8 n M B M v z r $ O * 7 y p p i 6 + $ r j j f z l j h v w $ w 6 ",
"= $ o o : $ & : 1 0 0 t a a u # 4 z C x 7 * @ O = 0 3 + 3 0 e q w a y 6 : $ & ; ",
"$ 2 h s h 1 ; 2 # & s h t ; O 2 +.M.v.s.1.B O t q.2.T t $ & @ O X @ O X * * ; 2 ",
"$ E N.k.7.z & 2 L s.m.s.2.g O z 7.U Y R O.U = A :.| [ R t $ 4 L H x d h d 9 r *.",
"& ) U S D v 5 L #.E S S L l & b U S S J S l = l } D S B S : s m.m.m.l.V.g.E f :.",
"2 N J J N g 8 M B J J S N q O q D B D D B 8 + d C G D D D 4 u 6./ / Q Q P I r J ",
"$ z A M l a = # 2 q s z h 6 1 ; u l l l a $ * x G B A D b 3 d | P H F W P P 9 m ",
"$ 2 d q q # : a t $ o 1 1 O 2 2 = d h l 6 : 0 b k h M g t % a P P Q Q P H D 4 q ",
"5 1 O = = K ;.8.) N 1 O ; ; + + 1 o 1 # . = $ q s u 6 1 - 2 3 j n m m n x j 2 @ ",
"7.+.h # D ! K B v B u $ 1 J O.N 5 5 b v B D B @ + $ 8 5 * * + > < > , 4 7 > & : ",
"*.*.C 9 D C m k i t f $ l M.7.:.v u C.z.j.=.%.y + G M.g./ N e O q C } X.E ] U U ",
"I H p q Z x d t i s q $ b _ B D M q >.Y G G P j , @.#.#.#.#.S q s.N.7.#.] L U U ",
"m H i 4 h e f s i d 6 ; h J D J h + K U W W W p , #.E U S S l u #.L U D D K S C ",
"Z C u O 9 i t i e e 2 O t L D D p + k ! P F F y 2 D D D D L t 2 b b B S B B D b ",
"h f * @ O : 4 4 4 & X O : l v s *   @ c m m p > = a M M b b q $ 2 6 q q t 9 , - ",
"< X * k k % X + @ e s h 6 $ = = 4 c i % 7 , , 3 : 1 2 2 6 1 = $ $ @ < , X O e V ",
"+ f m.p.p./ < & E N.k.*.U : = D V.p.6.s . y p.[ | K x l l 0 : b / X.-.6.z : ,.v.",
"y n.y. .@.=.9 t k.T T ) G : r g.-.W  .H + p I J J K D K L A 2 +.n.>.` X.C 4 ` H ",
"Z =.^ W P I 9 f ) J D S v = t _ H P H P 2 4 b d s y f f f h , k / H P W m < Z D ",
"n ( F W I n * d L B S L b $ 2 S G I I V 9 6 t s y i i e i i * 6 I m m H k < h b ",
"< Z P Z z 9 @ e S S S N l 2 # 6 j n F V 7 % t t y i y i u 9 * $ < k k s e * + : ",
"O : p p 4 & & O 5 q a t 6 # : 6 7 9 e 8 : . ; 5 4 9 4 9 6 $ X , : O X $ @ > r j ",
"H H p * @ * m } S l 8 = O = I 9.W < & @ s D s q < O & $ O e K #.) L z & 3 ;.v.;.",
"E / H c 9 * -.s.2.2.*.U s : K [ W H * u k.h.h.2.E D q o B x.i.e.] :.T 2 q 7.J M ",
"z s q h s $ B ) E J J _ b + a V G Z 4 u O.T U L U / z ; L :.L B J C L u 2 D A J ",
"s i d u s : u J S D B D h + 6 j b m 3 t U D S D C C h $ B B D D C D C h $ s M B ",
"9 u e t 5 $ - d x v z b r : $ = a a 1 6 b A M J D D 8 # v A S J A S z a # - 8 5 ",
"@ @ % @ X $ - + 5 0 9 r = : q 2 # = # 1 h z h M z z 8 # q v v z z z g = : : 5 w ",
"s c m F L q & N _ _ B e o M g.@.U l r = = 1 1 1 1 1 # : o 8 q u r 6 # 6 U #.Y D ",
"l.l.p.5.<.f t q.@.O.#.K : A L A J A L a # g J J l - : z M g r 2 = O 8 3.#.J v M ",
"X.^ ( P W f e H B M K M = l a g g g a r 1 s.z.d.s.z = 7.h.M.>._ h $ g N s g u u ",
"I I H H  .t < H J K A a : d g a a g a 1 r @.K A J z 8 L J B Y ) ) q q h s a a g ",
"I I I I H 9 * u v v x a 6 r y a a a r o w D F D J z 5 D S A J B L s ; g u s g u ",
"c Z G m m 4 @ , y a h 7 # 0 8 t y 0 1 % : b v z z y 1 L S J A S J r ; a a a r 0 "
};
