/* XPM */
static char *_37908171b51457fca094528fb662a6eDe7jL2Q4JEdfPsml[] = {
/* columns rows colors chars-per-pixel */
"40 40 143 2 ",
"   c #696258",
".  c #6A635B",
"X  c #6B645A",
"o  c #6C655B",
"O  c #6D665C",
"+  c #6E675D",
"@  c #6F685E",
"#  c #70695F",
"$  c #716A60",
"%  c #726B61",
"&  c #726B63",
"*  c #736C62",
"=  c #746D63",
"-  c #756E64",
";  c #766F65",
":  c #777066",
">  c #787167",
",  c #797268",
"<  c #7A7369",
"1  c #7B7569",
"2  c #7B746A",
"3  c #7C756B",
"4  c #7C766A",
"5  c #7D776B",
"6  c #7D766C",
"7  c #7E776D",
"8  c #7D766E",
"9  c #7E786C",
"0  c #7F786E",
"q  c #7F7870",
"w  c #80796F",
"e  c #807A6E",
"r  c #817B6F",
"t  c #817A70",
"y  c #827B71",
"u  c #827C70",
"i  c #837D71",
"p  c #837C72",
"a  c #847D73",
"s  c #847E72",
"d  c #857F73",
"f  c #857E74",
"g  c #867F75",
"h  c #868074",
"j  c #878175",
"k  c #878076",
"l  c #888177",
"z  c #888276",
"x  c #898377",
"c  c #888179",
"v  c #898278",
"b  c #8A8379",
"n  c #8A8478",
"m  c #8B8579",
"M  c #8B847A",
"N  c #8C857B",
"B  c #8C867A",
"V  c #8D877B",
"C  c #8D867C",
"Z  c #8E877D",
"A  c #8E887C",
"S  c #8F897D",
"D  c #8F887E",
"F  c #90897F",
"G  c #908A7E",
"H  c #918B7F",
"J  c #918A80",
"K  c #928B81",
"L  c #918A82",
"P  c #938D81",
"I  c #938C82",
"U  c #948D83",
"Y  c #948E82",
"T  c #958F83",
"R  c #938C84",
"E  c #958E84",
"W  c #968F85",
"Q  c #969084",
"!  c #979185",
"~  c #979086",
"^  c #989187",
"/  c #989286",
"(  c #999387",
")  c #979088",
"_  c #989189",
"`  c #999288",
"'  c #9A9389",
"]  c #9A9488",
"[  c #9B9589",
"{  c #9B948A",
"}  c #9C958B",
"|  c #9C968A",
" . c #9D978B",
".. c #9C958D",
"X. c #9D968C",
"o. c #9E978D",
"O. c #9E978F",
"+. c #9E988C",
"@. c #9F998D",
"#. c #9F988E",
"$. c #A0998F",
"%. c #A09A8E",
"&. c #A19A90",
"*. c #A29B91",
"=. c #A29C90",
"-. c #A39D91",
";. c #A39C92",
":. c #A49D93",
">. c #A49E92",
",. c #A49D95",
"<. c #A59E94",
"1. c #A69F95",
"2. c #A59E96",
"3. c #A7A096",
"4. c #A8A197",
"5. c #A9A397",
"6. c #A9A298",
"7. c #AAA399",
"8. c #AAA498",
"9. c #ABA49A",
"0. c #ACA59B",
"q. c #ADA69C",
"w. c #AEA79D",
"e. c #AFA89E",
"r. c #B0A99F",
"t. c #B1AAA0",
"y. c #B2ABA1",
"u. c #B3ACA2",
"i. c #B4ADA3",
"p. c #B5AEA4",
"a. c #B8B1A7",
"s. c #B9B2A8",
"d. c #BBB4AA",
"f. c #BCB5AB",
"g. c #BDB6AC",
"h. c #C0B9AF",
"j. c #C3BDB1",
"k. c #C6BFB5",
"l. c #C8C2B6",
"z. c #C9C3B7",
"x. c #CAC3B9",
"c. c #D2CCC0",
"v. c #D4CDC3",
/* pixels */
"6 6 > J M W ' ~ ^ M :.f # # ; 1.v ^ ' W Z ' 2 6 p ; p 3 k W U W I X.D X.k @ X < ",
"U ' W y F ' W { ^ W D f ' { l 3 F } U W Z F Z W J ' I J f F I X.{ W I ~ M J ~ D ",
"X.U ~ v p } ~ &.} U l U ' J #.6 v } #.;.N l &.J ' ' ~ X.Z 6 ~ #.#.} I p I #.~ I ",
"~ #.&.N 2 1.1.} 3.D p ~ #.' #.2 W :.X.^ N f :.^ &.~ X.{ l 0 :.&.#.3.I p I #.' ;.",
"&.:.' l I l J W D U U v #.#.D I l J J W &.Z W 1.J $.:.$.M I Z D N ' M I J { #.I ",
"f 2 0 u.a.> * < r.:.#.* X # : &.f.D < 6 F J v ; ' v : 0 t.p.> @ 2 9.3.#.: O * = ",
"a y 2 ;.} l I k ' w M v v Z k f N p F Z a v Z < F f y : ;.} p ^ k ~ k f k M k Z ",
"F ~ v f { F &.U a I X.~ ' ~ #.I : W ~ W X.N y F 2 F { N f ' U X.U k J X.{ ^ ^ ' ",
"D W N Z F ' &.U l ' $.1.&.' 1.' ; U } 1.&.f 2 W p Z } f F W W :.~ a #.;.#.;.$.X.",
"^ } N ~ 1.* ; ; ' 6 D N J M Z D Z M W D J U N Z p N ^ J U 4.* * 3 { : M I M D D ",
"W } N v { 3 f v 0 6 t.a ; < : < I J 3.l y v v v J F ;.D N J y y p p q u.p : > > ",
"W ' X.Z v $.X.' #.Z 4.l I J Z I p J w.f v f k W W J W X.v F #.' ;.^ F ;.h ~ Z D ",
"#.W U M M ' } &.' U W v &.W W X.' ~ $.v $.' I J Z I 1.J Z y X.&.~ X.~ I I #.~ { ",
"X.&.' X.0.6 ; * % X.w.U $.X.$.' } v ' J 1.$.X.J f ' ^ ^ &.i.< = , @ { e.I { { { ",
"^ 1.W ^ 3.w f y f k &.f } } { } ^ W 9.F J D M F J ' 3.J X.3.6 k r 0 D #.M ;.#.%.",
"1.&.' } W Z ~ ^ ^ a g.Z y = 6 X.N ~ w.p ~ w.4.x.' F 1.$.~ U J ^ I { 0 g.D : 5 : ",
"0 a 6 a.F I { ~ I D u.r k v % 1.D h 5 r r z.x.z.4.: l w u.U ! ~ ) I I 9.r M r 0 ",
": 2 * F ~ ~ ! #.,.k { M ~ { J q k %.^ +.N +.n h a 3 * : ^ ^ U } #.~ D { z / ( S ",
"W { W f 0 ;.#.{ ..I { I #.I F v ~ { ^ +.U l D ^ ! F { { w 3 { #.! #.I { D ~ ! Q ",
"{ ~ ~ k f ~ ..#.{ I I M ~ +.F M l U #.} N F F ^ ~ ~ ! U v N ~ $.;.{ D { S #.! ! ",
"{ #.;.D t.v y 2 : 3.;.D #.;.D 9.%.k 3 * :.3.U %.} &.{ ;.J 9.k > 5 1 %.5.M #.#.~ ",
"{ { ~ M ~ 0 M p r p 5 ~ O.#.' I I w h p ^ $.l ( #.I ^ ~ v { M l n 0 j : I 4.;.#.",
"I M F d.) D I T ..f q I ..J N +.h ( S ( 5 h.+.! D F ^ I d.{ a I S ( z p ~ I v I ",
"f v k #.Z ~ ~ ) ( v 4.5 X X > 8.l ^ ! S ! ;.S n f l p p $.I I { ( ~ z 9.2 @ @ * ",
"D I F y M I X.{ X.D F l U W a w N $.U { F l v I ~ N F I p k ^ ^ ( +.n I j H ! S ",
"{ ^ ' l 6 { { { #.U k J { U #.0 N #.} ' N N #.{ F &.} U k N { #.( #.( k +.( H I ",
"U ;.X.k k ;.{ 3.$.{ a I ;.^ #.= J $.;.' D k { U ;.U $.^ D > } ;.#.$.{ : ! +.{ ;.",
"#.#.;.k p I #.D D J D Z 3.;.I F l U { U ^ M #.4.} X.;.;.k F D ' I ! F M I 3.#.! ",
"D 0 0 e.d.: X 0 9.3.#.> # # 2 4.p.F 6 3 ^ U F > F M 3 f 0.a.* o 0 ;.9.#.: # * 2 ",
"p w 2 ;.{ k D p #.v l w a a k a W a Z a a a F < ^ a k = 1.#.a ^ h ~ M h h 2 p k ",
"k { p D W ^ X.D a l } } ^ ~ #.J 2 M $.^ ~ M M M 3 v I N M } W ~ H S S H #.( { ( ",
"J ~ D k I ~ 3.~ M ~ 3.' } &.} ' % { $.~ 7.l = ~ w U J D Z D ^ 4./ r ! 3.+.%.%.{ ",
"I ~ D D e.* : y { 2 I ~ D ~ I D M v I U { M p D 0 D I I D e.* 2 0 ~ p I I D ~ I ",
"~ { I M I 0 2 0 > f e.0 3 * : 0 I I ;.Z w ~ 0 I I U { W D ~ 2 2 a 6 y 9.f y @ * ",
"D { ' l k &.X.~ { N 9.f W M I M 0 ~ u.0 0 k 2 W ~ D ~ I D M { { I #.D ;.y Z D I ",
"X.#.{ v M #.#.#.#.D ^ D ^ U { ~ I I { v 3.{ { M N I #.~ M M X.#.;.#.F { W { { I ",
"X.' I ' ;.6 2 0 2 #.;.U &.#.#.#.#.I I #.{ ~ ;.D Z U X.' ^ &.a 2 6 @ 3.;.Z #.X.#.",
"' #.{ #.e.2 0 2 < D 3.Z { #.#.~ ~ ~ { D ~ ~ D D D ~ #.{ $.w.y 6 0 : D #.D 9.&.} ",
"$.9.~ ' ~ l { W U f t.M a y k ~ D { r.k ~ ;.;.f.W ~ 9.{ { W l { ~ ^ y t.I 2 : p ",
"k Z k 4.~ I ^ ~ ~ k a.k 0 0 * 9.I 2 p 0 k k.v.v.3.w D a 9.^ ~ ~ ~ ~ M u.M 0 p 2 "
};
